<svg width="23" height="22" viewBox="0 0 23 22" fill="none" xmlns="http://www.w3.org/2000/svg">
<g clip-path="url(#clip0_70_62)">
<path d="M21.4394 3.73725C21.1815 3.42782 20.8587 3.17895 20.4939 3.00833C20.129 2.83771 19.7311 2.74951 19.3283 2.75H4.50764L4.46914 2.42825C4.39035 1.75947 4.06891 1.14284 3.56576 0.695271C3.0626 0.247705 2.41272 0.000313311 1.73931 0L1.53581 0C1.29269 0 1.05953 0.0965771 0.887626 0.268485C0.715718 0.440394 0.619141 0.673552 0.619141 0.916667C0.619141 1.15978 0.715718 1.39294 0.887626 1.56485C1.05953 1.73676 1.29269 1.83333 1.53581 1.83333H1.73931C1.96383 1.83336 2.18053 1.91579 2.34832 2.06499C2.5161 2.21419 2.62329 2.41977 2.64956 2.64275L3.91089 13.3678C4.04184 14.4831 4.57774 15.5116 5.41689 16.258C6.25603 17.0044 7.34001 17.4167 8.46306 17.4167H18.0358C18.2789 17.4167 18.5121 17.3201 18.684 17.1482C18.8559 16.9763 18.9525 16.7431 18.9525 16.5C18.9525 16.2569 18.8559 16.0237 18.684 15.8518C18.5121 15.6799 18.2789 15.5833 18.0358 15.5833H8.46306C7.89569 15.5817 7.34271 15.4047 6.87991 15.0765C6.41712 14.7483 6.06718 14.2849 5.87806 13.75H16.8047C17.8793 13.7501 18.9198 13.3725 19.7443 12.6834C20.5688 11.9943 21.125 11.0373 21.3156 9.97975L22.0352 5.98858C22.107 5.59259 22.0909 5.18565 21.9879 4.79658C21.885 4.40752 21.6977 4.04587 21.4394 3.73725ZM20.2358 5.66317L19.5153 9.65433C19.4008 10.2896 19.0666 10.8643 18.571 11.2779C18.0755 11.6915 17.4502 11.9176 16.8047 11.9167H5.58656L4.72397 4.58333H19.3283C19.463 4.58253 19.5961 4.6114 19.7184 4.6679C19.8406 4.7244 19.9489 4.80713 20.0355 4.91022C20.1222 5.01331 20.185 5.13422 20.2196 5.26436C20.2543 5.3945 20.2598 5.53066 20.2358 5.66317Z" fill="#FFC020"/>
<path d="M7.03573 22C8.04825 22 8.86906 21.1792 8.86906 20.1667C8.86906 19.1541 8.04825 18.3333 7.03573 18.3333C6.0232 18.3333 5.20239 19.1541 5.20239 20.1667C5.20239 21.1792 6.0232 22 7.03573 22Z" fill="#FFC020"/>
<path d="M16.2025 22C17.215 22 18.0358 21.1792 18.0358 20.1667C18.0358 19.1541 17.215 18.3333 16.2025 18.3333C15.19 18.3333 14.3691 19.1541 14.3691 20.1667C14.3691 21.1792 15.19 22 16.2025 22Z" fill="#FFC020"/>
</g>
<defs>
<clipPath id="clip0_70_62">
<rect width="22" height="22" fill="white" transform="translate(0.619141)"/>
</clipPath>
</defs>
</svg>
