<svg xmlns="http://www.w3.org/2000/svg" width="19" height="19" viewBox="0 0 19 19" fill="none"><g clip-path="url(#clip0_70_139)"><path d="M9.38379 9.18872C10.2738 9.18872 11.1438 8.9248 11.8839 8.43034C12.6239 7.93587 13.2007 7.23307 13.5412 6.4108C13.8818 5.58853 13.971 4.68373 13.7973 3.81082C13.6237 2.9379 13.1951 2.13608 12.5658 1.50674C11.9364 0.877406 11.1346 0.448822 10.2617 0.275189C9.38878 0.101555 8.48398 0.19067 7.66171 0.531265C6.83945 0.871859 6.13664 1.44864 5.64218 2.18866C5.14771 2.92868 4.88379 3.79871 4.88379 4.68872C4.88498 5.88183 5.35947 7.02573 6.20312 7.86939C7.04678 8.71304 8.19068 9.18753 9.38379 9.18872ZM9.38379 1.68872C9.97713 1.68872 10.5572 1.86467 11.0505 2.19431C11.5438 2.52396 11.9284 2.99249 12.1554 3.54067C12.3825 4.08885 12.4419 4.69205 12.3261 5.27399C12.2104 5.85594 11.9247 6.39049 11.5051 6.81004C11.0856 7.2296 10.551 7.51532 9.96906 7.63108C9.38712 7.74683 8.78392 7.68742 8.23574 7.46036C7.68756 7.2333 7.21902 6.84878 6.88938 6.35543C6.55974 5.86209 6.38379 5.28207 6.38379 4.68872C6.38379 3.89307 6.69986 3.13001 7.26247 2.5674C7.82508 2.00479 8.58814 1.68872 9.38379 1.68872Z" fill="#FFC020"></path><path d="M9.38379 10.6887C7.59419 10.6907 5.87845 11.4025 4.61301 12.6679C3.34757 13.9334 2.63577 15.6491 2.63379 17.4387C2.63379 17.6376 2.71281 17.8284 2.85346 17.9691C2.99411 18.1097 3.18488 18.1887 3.38379 18.1887C3.5827 18.1887 3.77347 18.1097 3.91412 17.9691C4.05477 17.8284 4.13379 17.6376 4.13379 17.4387C4.13379 16.0463 4.68691 14.711 5.67148 13.7264C6.65604 12.7418 7.9914 12.1887 9.38379 12.1887C10.7762 12.1887 12.1115 12.7418 13.0961 13.7264C14.0807 14.711 14.6338 16.0463 14.6338 17.4387C14.6338 17.6376 14.7128 17.8284 14.8535 17.9691C14.9941 18.1097 15.1849 18.1887 15.3838 18.1887C15.5827 18.1887 15.7735 18.1097 15.9141 17.9691C16.0548 17.8284 16.1338 17.6376 16.1338 17.4387C16.1318 15.6491 15.42 13.9334 14.1546 12.6679C12.8891 11.4025 11.1734 10.6907 9.38379 10.6887Z" fill="#FFC020"></path></g><defs><clipPath id="clip0_70_139"><rect width="18" height="18" fill="white" transform="translate(0.383789 0.188721)"></rect></clipPath></defs></svg>