<svg width="22" height="22" viewBox="0 0 22 22" fill="none" xmlns="http://www.w3.org/2000/svg">
<mask id="mask0_34_29" style="mask-type:luminance" maskUnits="userSpaceOnUse" x="0" y="0" width="22" height="22">
<path d="M22 0H0V22H22V0Z" fill="white"/>
</mask>
<g mask="url(#mask0_34_29)">
<path d="M11 11C12.0878 11 13.1511 10.6774 14.0557 10.0731C14.9601 9.46874 15.6651 8.60976 16.0813 7.60476C16.4976 6.59977 16.6066 5.4939 16.3943 4.42701C16.1821 3.36011 15.6583 2.38011 14.8891 1.61091C14.1199 0.841727 13.1399 0.317902 12.073 0.105684C11.0061 -0.106535 9.90023 0.00238285 8.89524 0.418666C7.89025 0.834947 7.03126 1.5399 6.42692 2.44437C5.82257 3.34884 5.5 4.41221 5.5 5.5C5.50145 6.95825 6.08139 8.35635 7.11251 9.38749C8.14365 10.4186 9.54175 10.9985 11 11ZM11 1.83333C11.7252 1.83333 12.4342 2.04838 13.0371 2.45128C13.64 2.85418 14.1101 3.42683 14.3875 4.09683C14.6651 4.76682 14.7377 5.50407 14.5962 6.21533C14.4547 6.9266 14.1056 7.57994 13.5927 8.09272C13.08 8.60552 12.4266 8.95473 11.7153 9.09622C11.0041 9.23769 10.2668 9.16508 9.59683 8.88756C8.92683 8.61004 8.35417 8.14007 7.95128 7.53709C7.54838 6.93412 7.33333 6.22521 7.33333 5.5C7.33333 4.52754 7.71964 3.59491 8.40728 2.90727C9.09491 2.21964 10.0275 1.83333 11 1.83333Z" fill="#FFF3D4"/>
<path d="M11 12.8333C8.81271 12.8358 6.71569 13.7057 5.16905 15.2523C3.6224 16.7991 2.75242 18.896 2.75 21.0833C2.75 21.3264 2.84658 21.5596 3.01849 21.7316C3.19039 21.9034 3.42355 22 3.66667 22C3.90978 22 4.14294 21.9034 4.31485 21.7316C4.48675 21.5596 4.58333 21.3264 4.58333 21.0833C4.58333 19.3815 5.25937 17.7495 6.46273 16.5461C7.66608 15.3427 9.29819 14.6666 11 14.6666C12.7018 14.6666 14.3339 15.3427 15.5373 16.5461C16.7407 17.7495 17.4167 19.3815 17.4167 21.0833C17.4167 21.3264 17.5132 21.5596 17.6852 21.7316C17.857 21.9034 18.0902 22 18.3333 22C18.5764 22 18.8096 21.9034 18.9815 21.7316C19.1535 21.5596 19.25 21.3264 19.25 21.0833C19.2476 18.896 18.3776 16.7991 16.831 15.2523C15.2843 13.7057 13.1873 12.8358 11 12.8333Z" fill="#FFF3D4"/>
</g>
</svg>
