<svg width="26" height="26" viewBox="0 0 26 26" fill="none" xmlns="http://www.w3.org/2000/svg">
<path d="M13 25.5C19.9035 25.5 25.5 19.9035 25.5 13C25.5 6.09644 19.9035 0.5 13 0.5C6.09644 0.5 0.5 6.09644 0.5 13C0.5 19.9035 6.09644 25.5 13 25.5Z" fill="#FFC021"/>
<path d="M18.9375 11.75H18.6062L18.6125 11.1437C18.6175 10.6394 18.4244 10.1644 18.0694 9.80562C17.7144 9.44687 17.2419 9.25 16.7375 9.25H13.625V7.82687C13.9969 7.61062 14.25 7.21187 14.25 6.75C14.25 6.05937 13.6906 5.5 13 5.5C12.3094 5.5 11.75 6.05937 11.75 6.75C11.75 7.21125 12.0031 7.61 12.375 7.82687V9.25H9.25C8.21625 9.25 7.375 10.0912 7.375 11.125V11.75H7.0625C6.7175 11.75 6.4375 12.03 6.4375 12.375V14.875C6.4375 15.22 6.7175 15.5 7.0625 15.5H7.375V16.75C7.375 17.7837 8.21625 18.625 9.25 18.625H16.6812C17.7044 18.625 18.5456 17.7925 18.5562 16.7687L18.5687 15.5H18.9375C19.2825 15.5 19.5625 15.22 19.5625 14.875V12.375C19.5625 12.03 19.2825 11.75 18.9375 11.75ZM17.3062 16.7562C17.3031 17.0975 17.0225 17.375 16.6812 17.375H9.25C8.90562 17.375 8.625 17.0944 8.625 16.75V11.125C8.625 10.7806 8.90562 10.5 9.25 10.5H16.7375C16.9056 10.5 17.0631 10.5656 17.1812 10.685C17.2994 10.8044 17.3637 10.9631 17.3625 11.1312L17.3062 16.7562Z" fill="white"/>
<path d="M11.125 12.375H9.875V14.25H11.125V12.375Z" fill="white"/>
<path d="M16.125 12.375H14.875V14.25H16.125V12.375Z" fill="white"/>
<path d="M14.875 14.875H11.125V16.125H14.875V14.875Z" fill="white"/>
</svg>
